<style>
	svg {
	  max-width: 95%;
	  max-height: 95%;
	  position: absolute;
	  top: 0;
	  left: 0;
	  right: 0;
	  bottom: 0;
	  margin: auto;
	}
	svg path {
	  fill-opacity: 0;
	  stroke: #000;
	  stroke-width: 3;
	  stroke-dasharray: 870;
	  stroke-dashoffset: 870;
	  animation: draw 10s infinite linear;
	}

	@keyframes draw {
	  to {
	    stroke-dashoffset: 0;
	  }
	}

	</style>





<svg id="Layer_1" data-name="Layer 1" xmlns="http://www.w3.org/2000/svg" viewBox="0 0 1080 538"><defs><style>.cls-1,.cls-2{fill:none;stroke:#ccc9c8;stroke-miterlimit:10;}.cls-1{stroke-width:2.16px;}.cls-2{stroke-width:4.32px;}</style></defs><title>Artboard 1</title><polyline class="cls-1" points="3.8 376.47 181.51 376.47 188.09 365.52 214.38 365.52 214.38 257.35 217.39 257.35 217.39 251.19 253.53 251.19 253.53 271.32 263.8 271.32 263.8 267.62 266.68 267.62 266.68 262.69 272.43 262.69 285.16 249.14 294.2 249.14 306.31 237.02 319.87 250.58 340.2 250.58 340.2 367.43 352.52 367.43 352.52 343.61 354.99 343.61 354.99 321.84 358.27 321.84 358.27 312.39 361.97 312.39 361.97 262.69 365.25 262.69 365.25 259.41 370.6 259.41 370.6 256.53 374.7 256.53 374.7 246.26 380.45 246.26 380.45 253.66 388.26 253.66 388.26 234.76 395.24 234.76 395.24 223.26 403.45 223.26 403.45 232.71 408.38 232.71 408.38 259.41 413.72 259.41 413.72 278.3 420.3 278.3 420.3 292.27 423.99 292.27 423.99 301.3 428.1 301.3 428.1 386.33 456.85 386.33 456.85 336.22 468.35 336.22 468.35 247.91 472.05 247.91 472.05 234.76 504.09 234.76 504.09 247.09 509.01 247.09 509.01 338.27 513.94 338.27 513.94 362.5 516.41 362.5 516.41 366.61 532.43 366.61 532.43 321.43 535.71 321.43 535.71 304.59 542.29 304.59 542.29 295.55 578.02 295.55 578.02 286.93 582.13 282.82 582.13 265.16 594.86 265.16 594.86 259.82 601.02 259.82 604.31 256.53 607.18 256.53 607.18 265.16 620.33 265.16 620.33 279.94 626.08 279.94 626.08 364.56 636.35 364.56 642.71 358.19 660.99 358.19 660.99 371.13 666.54 376.67 666.54 383.04 1075 383.04"/><polyline class="cls-1" points="170.97 376.47 170.97 323.48 174.26 323.48 174.26 319.79 191.1 319.79 191.1 316.09 203.83 316.09 203.83 231.48 238.34 242.57 238.34 250.37"/><polyline class="cls-1" points="327.47 250.78 327.47 207.24 404.69 207.24"/><polyline class="cls-1" points="403.45 223.26 410.44 95.52 418.65 95.52 418.65 81.56 432.62 81.56 435.08 5.16 437.55 73.34 442.48 73.34 442.48 84.84 450.69 84.84 450.69 94.7 457.26 94.7 463.01 336.22"/><polyline class="cls-1" points="459.73 200.67 489.3 200.67 489.3 235.17"/><line class="cls-1" x1="510.66" y1="254.89" x2="543.52" y2="254.89"/><polyline class="cls-1" points="523.8 254.89 523.8 217.1 541.88 217.1"/><polyline class="cls-1" points="542.29 295.55 542.29 157.95 589.52 157.95 589.52 265.16"/><line class="cls-1" x1="588.7" y1="224.49" x2="637.99" y2="224.49"/><polyline class="cls-1" points="619.92 272.14 637.99 272.14 637.99 211.35 669.21 211.35 669.21 203.96 692.21 203.96"/><polyline class="cls-1" points="691.39 381.4 691.39 186.71 750.53 186.71 750.53 383.04"/><polyline class="cls-1" points="750.53 208.06 763.68 208.06 763.68 225.31 779.28 225.31 785.86 218.74 799.82 218.74 799.82 207.24 827.75 207.24 827.75 220.39 847.47 220.39 847.47 244.21 860.61 244.21 860.61 312.39 892.65 312.39 892.65 374 903.33 374 903.33 383.86"/><polyline class="cls-1" points="767.78 381.4 767.78 255.71 822.82 255.71 822.82 382.22"/><line class="cls-2" x1="12" y1="491" x2="1071" y2="491"/></svg>