
<svg version="1.1" id="Trace_3_" xmlns="http://www.w3.org/2000/svg" xmlns:xlink="http://www.w3.org/1999/xlink" x="0px" y="0px"
	 viewBox="0 0 1080 385" style="enable-background:new 0 0 1080 385;" xml:space="preserve">

	 <defs>

	<style>

		#skyline{
			stroke-dasharray: 4500;
			stroke-dashoffset:0;
			-webkit-animation: dash 2.5s linear forwards;


		}

		@-webkit-keyframes dash{
			from{
				stroke-dashoffset: 4500;
			}

			to{
				stroke-dashoffset: 0;
			}
		}
		

		</style>
</defs>

<path id="skyline" style="fill:none;stroke:#CCC9C8;stroke-width:2.16;stroke-miterlimit:10;" d="M1,286h76.6h16v-88.7l-4.8-4.8h4.8v-18.4
	l9.2-17.4l10.7,16v18.9h5.3l-5.1,5.1V285l5.7-5.7l1.3-7.9l2.9,6.3h14.5l6.8-6.8v-20.3l-5.6-5.6l7.5-7.5l3.1,3.1v-12.1
	c0,0,2.9-5.6,6.3,0c0,2.9,0,11.4,0,11.4l4.6-2.9l8.4,8.4l-4.8,4.8v19.3l4.7,7.8h20.1v-80.2l-4.6-2.4h5.1v-23.7l10.7-13.8l11.6,14.1
	v23.7h3.4l-4.1,2.7v75.3c0,0,49.4-20.3,48.7-42.6s-18.7-71-18.7-71l-10.4-31l25.2-21.1c0,0-7.8-3.1-11.6-2.2
	c-3.9,1-14.3-3.6-3.4-9.7c3.4-1,13.8-1.5,13.8-1.5l3.6-48.7l6.1,50.4c0,0,18.7,5.3,18.4,21.1c-0.2,15.7-17.2,24.2-37.6,22
	c1.9,7.3,33.4,105.1,33.4,105.1s4.4,14.3,16.7,15s13.6,0.2,13.6,0.2v-73.4c0,0-1.7-19.1-6.8-28.6s1.9-17.7,8.5-18.2
	c6.5-0.5,28.8,0,28.8,0s11.6,1.2,7.5,17.2c-4.1,16-4.6,24.5-4.4,30c0.2,5.6,0,72.7,0,72.7h34.9v-90.4h41.2v92.8h32v-3.4h9.7V253h5.1
	v-10.2l5.3-5.3l3.9,3.9v3.9h2.2v-6.5l2.9-2.9l2.9,2.9v5.8h2.7v-41.9h2.9l1-57.4l3.4-55.2c0,0-5.1-5.3,1.2-6.3c6.3-1,2.4,6.3,2.4,6.3
	l3.1,51.6l5.1-63c0,0-6.1-8.7,1.9-8.7c8,0,1.7,8.5,1.7,8.5l5.1,93h5.1v-7.3h-3.4l4.8-19.1l1-11.1l0.7,10.9l5.6,20.1h-4.1v6.3h7.3
	l5.3-93.8c0,0-7.3-7.3,0.7-7.5c8-0.2,2.2,8,2.2,8l4.4,63.5l3.9-51.8c0,0-5.8-7,1-7.3c6.8-0.2,2.7,7,2.7,7l3.6,54.5v59.4h4.1v42.6
	h2.7V239l3.4-4.6l2.7,4.6v6.1h2.4v-5.3l2.9-3.1l2.8,2.8v17.3h5.9v3.6h10.9v3.1h13.3h6.3v7.8h28.1c0,0-2.9-56.4,2.2-66.6
	c0-3.9,0-9.2,0-9.2h-3.1v-8.2h7.5c0,0,27.9-61.5,77.8-42.4c0,6.5,0,97.4,0,97.4H743v2.9h7.8v-5.3h22.8c0,0,1.2-152.6,32.7-153.1
	c31.5-0.5,34.2,192.9,34.2,192.9h44.1v-7.8h10.9v-4.1h14.5v-2.9h4.1v-6.5h2.7v-16.5h3.9v-88.2l-4.4-5.8c0,0-5.1-5.8,0.7-5.8
	s5.1,0,5.1,0v-4.8l-4.2-4.2c0,0-4.7-1.8-0.4-5.2s3.9-6.5,3.9-6.5v-10.9c0,0,2.9-0.5,2.4-3.4c-0.5-2.9-2.7-7-9.4-9.4
	c3.4-0.5,8.5,2.4,8.5,2.4l4.6-0.5c0,0-1.9-6.5,0.2-6.1c2.2,0.5,4.4,6.1,4.4,6.1s6.3,8.7,1.9,11.4c-2.2,0.5-3.6,0.5-3.6,0.5v8.7h3.9
	v4.8h2.2v9.9c0,0-7.5,5.3-0.5,9.4c3.1,0.2,8.2-1.5-1.7,11.4c0.2,4.8,0,86.2,0,86.2h4.4v16.5h4.4v7h3.4v4.6h4.1v14.1h5.3v-11.6h5.1
	v-4.4h17.4v5.8h3.9v10.9h96.9"/>
<line style="fill:none;stroke:#CCC9C8;stroke-width:4.32;stroke-miterlimit:10;" x1="9.5" y1="379" x2="1068.5" y2="379"/>
</svg>
