
<svg version="1.1" xmlns="http://www.w3.org/2000/svg" xmlns:xlink="http://www.w3.org/1999/xlink" x="0px" y="0px"
	 viewBox="0 0 1080 385" style="enable-background:new 0 0 1080 385;" xml:space="preserve">
<defs>

	<style>

		#skyline{
			stroke-dasharray: 4500;
			stroke-dashoffset:0;
			-webkit-animation: dash 2.5s linear forwards;


		}

		@-webkit-keyframes dash{
			from{
				stroke-dashoffset: 4500;
			}

			to{
				stroke-dashoffset: 0;
			}
		}
		

		</style>
</defs>


<g>
	<path id="skyline" style="fill:none;stroke:#CCC9C8;stroke-width:2.16;stroke-miterlimit:10;" d="M1.1,263.1h122.7v-28.7h29.6
		c0,0-7.9-50.4,65-21.7c12.5-0.4,34.6-3.7,53.3,2.9c-1.7,2.1-9.2,1.7-10.4,4.6c3.7,1.7,12.1,5,11.7,7.9c0-14.6,0.4-126.2,0.4-126.2
		h5V91.5l10.8-17.9V56.5h1V30.1h1.5v26.2h1.5v17.3L304,90.9v11.5h2.9v105.2h17.3V101.7h30.6v105.6h25v-26.7h11.5v-32.7h9.6v-7.3h15
		v7.7h7.9v18.3h31.2V236h7.5v-95.6h37.7v93.9H518v-16.2h4.8v-146L533,61.5V17.1h1.9v33.5h10.2V16.9h1.5v43.9l10.2,11v49.8h33.1v64.1
		h25.8v40h14.2v-70.2l4.2-6.2h24.4l3.3,5.6v75.4h6.2v-98.9h57.7v9.8h28.1V80h1V43.8h1.9V24h2.9V9.2l3.5-5.4v9.4h2.5V3.4v9.8h2.7V3.5
		v9.7h3.4V3.4v9.8h3.1V3.6v9.6h3.2V3.7v9.5h3V3.5v9.7h1.8V3.6l3.7,4.5v16.6h3.2v18.9h1.8v36.1h1.6v98.7h23.9v-16.7h1.2v-30.3h1.1
		V114h2.5v-13.7l3.3-3.4v7.2h2v-7.7v7.7h3v-7.5v7.5h2.3v-7.5v7.5h3v-7.5v7.5h2.7v-7.8v7.8h2.5v-7.5v7.5h2.3v-8l2.5,3.1v14.7h3.1V131
		h1.2v31.1h0.9v61.7l7.2-7.7l4.1,4.2V95.1l2.7-4.2V86l12.8-10.8V55.6v19.7l13.6,11.6v4.8l2.2,3.9v138.4h5.9v-91.4h1.7v-5.8
		l13.1-17.6l13.6,18.1v5.6h1.7v91.4h16.6v29h133.5"/>
	<line style="fill:none;stroke:#CCC9C8;stroke-width:4.32;stroke-miterlimit:10;" x1="12" y1="375" x2="1071" y2="375"/>
</g>
</svg>
