
<svg version="1.1" id="Trace_1_" xmlns="http://www.w3.org/2000/svg" xmlns:xlink="http://www.w3.org/1999/xlink" x="0px" y="0px"
	 viewBox="0 0 1080 528" style="enable-background:new 0 0 1080 528;" xml:space="preserve">

	 <defs>

	<style>

		#skyline{
			stroke-dasharray: 5500;
			stroke-dashoffset:0;
			-webkit-animation: dash 2.5s linear forwards;


		}

		@-webkit-keyframes dash{
			from{
				stroke-dashoffset: 5500;
			}

			to{
				stroke-dashoffset: 0;
			}
		}
		

		</style>
</defs>

<path id="skyline" style="fill:none;stroke:#CCC9C8;stroke-width:2.16;stroke-miterlimit:10;" d="M5.8,395.9h106.4v-8.7h2.4v-2.8h15.3v-10.8h-6.3
	l8.7-5.9h-5.6v-5.2h9.4v-7.7h-15l23-7.3v-7h7.3v-4.5h-14.6l32.4-15l34.2,13.9h-14.6v5.2h7.7v7l24.1,6.6h-16v8.4h7.3v7l3.7,3.7h-6.1
	v11.7h16v3.5h8v-4.5h7v-25.8l-10.8-8.4c0,0-19.2,1.7-19.5-7.7c7.3-1.7,22.3-5.2,22.3-5.2l-0.3-6.6h9.4v-9.8h-12.6l3.1-3.5
	c0,0-16.7,3.8-18.8-12.6c9.4-1,17.1-2.8,17.1-2.8v-23h126.2v25.1h16.4c0,0,7.7,12.9-16.7,14.6c1.7,2.8,3.1,4.2,3.1,4.2l-11.9,0.3
	v7.7h7.3v4.5l21.6,8.7c0,0,2.1,7.3-15,5.2c-4.5,4.2-12.6,8-12.6,8v27.2h5.9v4.5h37v-28.6h24.1v-7l-7.8-7.8c0,0-20.1,4.4-30.9-10.3
	c11.9-0.3,29.3-2.8,29.3-2.8l-5.9-8.7h15.3v-5.9l-7.5-7.5c0,0-20.4,3.7-31.6-11c10.8-1.4,32.1-4.9,32.1-4.9l-7.3-7h14.6v-5.2
	l-6.6-6.6c0,0-29.3,0.7-32.8-13.3c14.3-1,28.6-3.1,28.6-3.1l-0.7-7.3l12.9-0.3V246l-8.9-8.9c0,0-21.8,3.7-29.5-9.9
	c6.3-0.7,28.6-3.1,28.6-3.1l-4.5-5.9c0,0,28.9-3.5,36.6-16c0-3.8,1.4-68.7,1.4-68.7l2.4,68.7c0,0,18.8,16,35.2,15.3
	c-6.3,3.5-5.9,5.6-5.9,5.6l29.6,3.8c0,0,1.7,9.8-33.1,13.9c-3.5,4.2-5.6,5.9-5.6,5.9v4.2h11.9v6.6l24.8,3.1c0,0,2.1,13.6-28.9,14.6
	c-5.2,4.2-7.7,6.3-7.7,6.3v4.9h10.1l-4.7,4.7l30.5,6.5c0,0-0.7,11.9-30,13.6c-5.9,5.9-7,7-7,7v3.1h13.6l-3.8,8.4l28.2,2.8
	c0,0-1,15-33.5,15.3c-3.8,5.2-5.6,7.7-5.6,7.7v5.2h19.9v26.9h8.7v-33.5h16.4v-21.3h13.6V330h11.2v-5.6c0,0-16.4-2.4-20.6-22.3
	c13.3,0,26.9,0,26.9,0s4.2-18.8,4.2-36.3s2.1-134.2,2.1-134.2s-20.2-3.1-20.6-16.4s17.1-14.3,17.1-14.3V82.8h6.6v-37h3.1V2.9h2.1
	v42.5h2.8v37h9.4v18.8c0,0,16.4,3.5,16.4,13.9s-22,17.4-22,17.4l2.4,133.9c0,0,1.7,29.3,5.2,33.8c4.9,0,26.2,0,26.2,0
	s1,13.9-18.5,24.8c0,3.1,0,5.2,0,5.2h9.1v3.8h12.6v19.9h13.9v33.8h9.1v-22.3h1.7l0.3-87.9h-33.1v-11.5h33.8v-12.6h-19.2
	c0,0-14.6,0.7-22.3-23c10.1,2.8,21.6,6.3,30,7c8.4,0.7,162.5,0,162.5,0s22.3-3.5,26.8-7.3c-2.1,6.3-2.1,23-17.8,23.7
	c-15.7,0.7-24.1,0-24.1,0v11.2h33.8v12.6h-33.5v88.2h4.5v21.6h10.8v-23.4l-7.3-3.8h8v-6.6c0,0-7,1.4-7.7-5.2c5.9,0,13.6,0,13.6,0
	l5.1-5.1v-11.3c0,0-5.8,2.1-6.8-3.8c4.2,0,8.4,0,8.4,0l5.8-5.8v-7.8h1.9v3.8h16v-5.6h2.4v9.1l6.3,6.3h7c0,0-1,3.8-6.3,3.5
	c-0.3,4.2,0,6.3,0,6.3h26.9v-5.6c0,0-8-1.7-8-5.6c3.1,0,9.4,0,9.4,0l7-9.8h16.7l7.7-11.9c0,0-11.5,0.3-13.9-5.6c9.1,0,13.6,0,13.6,0
	l8.4-4.9v-11.2c0,0-12.9-0.3-13.3-6.6c6.6,0,15,0,15,0l9.8-15.7h29.3l9.4,15h14.3c0,0,2.1,6.6-9.4,6.6c0,4.2,0,10.8,0,10.8l7,4.2
	h15.7c0,0-2.1,6.6-8.4,7.3c3.5,5.2,8,12.2,8,12.2h8.4c0,0-0.3,7-8,5.9c0,4.2,0,8.4,0,8.4l9.1,4.9h10.8c0,0-0.7,7.7-11.9,5.9
	c0.7,5.9,1.7,9.1,1.7,9.1h13.6c0,0-1.4,8.4-11.9,7.3c1.4,3.8,4.9,8,4.9,8l0.3,31.4l97.6-0.9"/>
<line style="fill:none;stroke:#CCC9C8;stroke-width:4.32;stroke-miterlimit:10;" x1="12" y1="507" x2="1071" y2="507"/>
</svg>
