
<svg version="1.1" id="Layer_1" xmlns="http://www.w3.org/2000/svg" xmlns:xlink="http://www.w3.org/1999/xlink" x="0px" y="0px"
	 viewBox="0 0 1080 538" style="enable-background:new 0 0 1080 538;" xml:space="preserve">

<defs>

	<style>

		#skyline{
			stroke-dasharray: 5500;
			stroke-dashoffset:0;
			-webkit-animation: dash 2.5s linear forwards;


		}


		#skyline2{
			stroke-dasharray: 5500;
			stroke-dashoffset:0;
			-webkit-animation: dash 8s linear forwards;


		}

		@-webkit-keyframes dash{
			from{
				stroke-dashoffset: 5500;
			}

			to{
				stroke-dashoffset: 0;
			}
		}
		

		</style>
</defs>

	<polyline id="skyline" style="fill:none;stroke:#CCC9C8;stroke-width:2.16;stroke-miterlimit:10;" points="3.8,376.5 181.5,376.5 188.1,365.5 
		214.4,365.5 214.4,257.4 217.4,257.4 217.4,251.2 253.5,251.2 253.5,271.3 263.8,271.3 263.8,267.6 266.7,267.6 266.7,262.7 
		272.4,262.7 285.2,249.1 294.2,249.1 306.3,237 319.9,250.6 340.2,250.6 340.2,367.4 352.5,367.4 352.5,343.6 355,343.6 355,321.8 
		358.3,321.8 358.3,312.4 362,312.4 362,262.7 365.3,262.7 365.3,259.4 370.6,259.4 370.6,256.5 374.7,256.5 374.7,246.3 
		380.5,246.3 380.5,253.7 388.3,253.7 388.3,234.8 395.2,234.8 395.2,223.3 403.5,223.3 403.5,232.7 408.4,232.7 408.4,259.4 
		413.7,259.4 413.7,278.3 420.3,278.3 420.3,292.3 424,292.3 424,301.3 428.1,301.3 428.1,386.3 456.9,386.3 456.9,336.2 
		468.4,336.2 468.4,247.9 472,247.9 472,234.8 504.1,234.8 504.1,247.1 509,247.1 509,338.3 513.9,338.3 513.9,362.5 516.4,362.5 
		516.4,366.6 532.4,366.6 532.4,321.4 535.7,321.4 535.7,304.6 542.3,304.6 542.3,295.6 578,295.6 578,286.9 582.1,282.8 
		582.1,265.2 594.9,265.2 594.9,259.8 601,259.8 604.3,256.5 607.2,256.5 607.2,265.2 620.3,265.2 620.3,279.9 626.1,279.9 
		626.1,364.6 636.3,364.6 642.7,358.2 661,358.2 661,371.1 666.5,376.7 666.5,383 1075,383 	"/>
	<polyline id="skyline2" style="fill:none;stroke:#CCC9C8;stroke-width:2.16;stroke-miterlimit:10;" points="171,376.5 171,323.5 174.3,323.5 
		174.3,319.8 191.1,319.8 191.1,316.1 203.8,316.1 203.8,231.5 238.3,242.6 238.3,250.4 	"/>
	<polyline id="skyline2" style="fill:none;stroke:#CCC9C8;stroke-width:2.16;stroke-miterlimit:10;" points="327.5,250.8 327.5,207.2 404.7,207.2 
			"/>
	<polyline id="skyline2" style="fill:none;stroke:#CCC9C8;stroke-width:2.16;stroke-miterlimit:10;" points="403.5,223.3 410.4,95.5 418.7,95.5 
		418.7,81.6 432.6,81.6 435.1,5.2 437.5,73.3 442.5,73.3 442.5,84.8 450.7,84.8 450.7,94.7 457.3,94.7 463,336.2 	"/>
	<polyline id="skyline2" style="fill:none;stroke:#CCC9C8;stroke-width:2.16;stroke-miterlimit:10;" points="459.7,200.7 489.3,200.7 489.3,235.2 
			"/>
	<line id="skyline2" style="fill:none;stroke:#CCC9C8;stroke-width:2.16;stroke-miterlimit:10;" x1="510.7" y1="254.9" x2="543.5" y2="254.9"/>
	<polyline id="skyline2" style="fill:none;stroke:#CCC9C8;stroke-width:2.16;stroke-miterlimit:10;" points="523.8,254.9 523.8,217.1 541.9,217.1 
			"/>
	<polyline id="skyline2" style="fill:none;stroke:#CCC9C8;stroke-width:2.16;stroke-miterlimit:10;" points="542.3,295.6 542.3,158 589.5,158 
		589.5,265.2 	"/>
	<line id="skyline2" style="fill:none;stroke:#CCC9C8;stroke-width:2.16;stroke-miterlimit:10;" x1="588.7" y1="224.5" x2="638" y2="224.5"/>
	<polyline id="skyline2" style="fill:none;stroke:#CCC9C8;stroke-width:2.16;stroke-miterlimit:10;" points="619.9,272.1 638,272.1 638,211.3 
		669.2,211.3 669.2,204 692.2,204 	"/>
	<polyline id="skyline2" style="fill:none;stroke:#CCC9C8;stroke-width:2.16;stroke-miterlimit:10;" points="691.4,381.4 691.4,186.7 750.5,186.7 
		750.5,383 	"/>
	<polyline id="skyline2" style="fill:none;stroke:#CCC9C8;stroke-width:2.16;stroke-miterlimit:10;" points="750.5,208.1 763.7,208.1 763.7,225.3 
		779.3,225.3 785.9,218.7 799.8,218.7 799.8,207.2 827.8,207.2 827.8,220.4 847.5,220.4 847.5,244.2 860.6,244.2 860.6,312.4 
		892.7,312.4 892.7,374 903.3,374 903.3,383.9 	"/>
	<polyline id="skyline2" style="fill:none;stroke:#CCC9C8;stroke-width:2.16;stroke-miterlimit:10;" points="767.8,381.4 767.8,255.7 822.8,255.7 
		822.8,382.2 	"/>

<line id="skyline" style="fill:none;stroke:#CCC9C8;stroke-width:4.32;stroke-miterlimit:10;" x1="12" y1="491" x2="1071" y2="491"/>
</svg>
