
<svg version="1.1" id="Trace_2_" xmlns="http://www.w3.org/2000/svg" xmlns:xlink="http://www.w3.org/1999/xlink" x="0px" y="0px"
	 viewBox="0 0 1080 385" style="enable-background:new 0 0 1080 385;" xml:space="preserve">

	 <defs>

	<style>

		#skyline{
			stroke-dasharray: 5500;
			stroke-dashoffset:0;
			-webkit-animation: dash 2.5s linear forwards;


		}

		@-webkit-keyframes dash{
			from{
				stroke-dashoffset: 5500;
			}

			to{
				stroke-dashoffset: 0;
			}
		}
		

		</style>
</defs>

<path id="skyline" style="fill:none;stroke:#CCC9C8;stroke-width:2.16;stroke-miterlimit:10;" d="M3,254.5h120.1v-87.2h4.8v-5.9h11.3v8.1h2.1
	v-5.8h14.5v-6.5h7.1v6.5h8.1v6.1h4.4v-6.9h10.3v28.3h5.4v-45.2h10.3v-3.6h35.1v110.6h8.7v-4.4h3.2v-15.1c0,0-5.4-1-6.7-8.7
	c5,0.8,7.9,2,8.5,0.6c-0.4-2.4,0-4,0-4h3.4v-3.8c0,0-9.1,3.6-10.5-6.1c4.4,1.2,7.7,0.4,8.3-1c0-1.6,0-3.8,0-3.8h2v-3.2
	c0,0-10.1,1.4-10.3-7.3c4.6,0.2,6.7,1.4,7.7,0.4c-0.2-1.2,0-3.2,0-3.2h3v-3.2c0,0-8.3-0.4-9.3-6.5c4.6,0,6.1,0.6,7.1-0.4v-3.2h3.2
	v-4c0,0-5.4,3.2-9.3-5.2c4.4,0.4,7.5,0.8,7.9-0.6c-2.4-1.6-3.6-2.2-4.8-6.7c4,0.4,6.5,0,6.5,0V160c0,0-6.3-1.2-6.7-6.1
	c4.2,0.2,8.7,0.6,8.7-1.4c0-2,0-4.4,0-4.4h-5.7c0,0,11.9-4,16.8-11.1v-24.4h4.2V137c0,0,9.9,9.7,15.1,10.5c-4,0-5.7,0-5.7,0v4.8
	c0,0,2.3,2.9,9.8,1.4c-1.7,3.2-4,6.7-8.9,6.5v3c0,0,1.4,1.7,8.5-0.1c-0.8,2.8-1.7,5.4-4.6,6.9c1.7,0.7,4.4,1.1,7.8,0.2
	c-0.7,1.6-1.9,5.8-8.5,6.3v3.6h3.3v2.7c0,0,1.5,1.2,5.6,0.5c-0.8,2.5-1.6,6.1-7.9,5.9v3.3h3.1v3.7c0,0,3.7,1.1,5.7,0.6
	c-0.9,1.9-3.4,5.3-8.1,6.2c0,1.9,0,4.6,0,4.6h2.2v3.4c0,0,4.5,1.6,6,0.5c-0.7,1.5-1.7,5.3-8.3,5.1c0,2.7,0,4.7,0,4.7h2v4.1
	c0,0,4.1,1.4,7.4,0c-0.4,1.6-2.1,6.9-7,6.5v16.9h3.5h6.5V118.4h9.4v-11.7c0,0-0.4-2.5,7.2-2.3c7.5,0.2,8.1,0.2,8.7,1.7
	c0.1,2.8,0,12.4,0,12.4h9v59.8h19.3v4.2h2.5v1.9h2.4V99.2l16.1,16.1h14L404.9,99v113.4l16.9-16.9v-77.9h56.6V213h8.3V78.7h54.1V177
	h10V48.3l6.5-15.3h54.1l6.7,14.8v208h10.8V22.2l8.1-19.1h60.3l8.6,16.7v166.3h11.8v-9.7h3.5V57.7h6.7v-8.6h50.9v8.3h6.5v155.8h19.4
	l3-78.9l-18.8-7c0,0-10.5-4-0.3-4.8s18.6-1.3,18.6-1.3L787,100.5h20.5V88.2h-2.9v-4.6h2.2v-6.9h4.2v-4.8h4.2v4.8h4.6v6.9h2v4.6h-3.2
	v12.5h20.6l-19.4,20.4l19.8,2.6c0,0,9.7,1-0.2,3.4c-9.9,2.4-21.2,6.7-21.2,6.7l4.2,71.8l0.5,7.9h14.1V240h6.9l0.4-20.2l-7.1-0.1
	l-0.1-6.1h-12.8c-5.5,0.2,21.7-7.3,21.7-7.3v-9.7l-18.2-4.6c0,0-6.3-2.2,3.6-4.4c9.9-2.2,18.6-5.2,18.6-5.2l-0.8-14.3l-9.9-4.4
	c0,0-12.7-5.7,0-7.3c12.7-1.6,15.5-3,15.5-3v-3.8l-9.1-1.8c0,0-9.3-4.4,0-5.7c9.3-1.2,16.3-3.6,16.3-3.6v-9.5l-10.9-2
	c0,0-11.7-3.6-0.8-5.7c10.9-2,18.6-4.6,18.6-4.6s10.7-5.2,18.2-13.9c0.6-5,2-13.7,2-13.7h4.4l1.8,13.1c0,0,18,17.8,28.3,17.2
	s8.3,3.6,8.3,3.6l-12.1,5.9v8.1l15.5,6.9c0,0,9.5,2.4,0,4.8s-7.7,1.2-7.7,1.2v3.2l15.7,4.8c0,0,12.7,3.4,0.2,5.4
	c-12.5,2-13.1,2.8-13.1,2.8v15.3l19,6.9c0,0,20.8,6.3,0,7.5c-8.3,0.6-12.5,0.8-12.5,0.8v7.1c0,0,21.8,6.7,22.4,7.1
	c0.6,0.4,6.1,1.2,6.1,1.2s17.8,5.4,0.4,8.7c-17.4,3.2-17.2,4.8-17.2,4.8v19.4h30.9h98.4"/>
<line style="fill:none;stroke:#CCC9C8;stroke-width:4.32;stroke-miterlimit:10;" x1="9.5" y1="375" x2="1068.5" y2="375"/>
</svg>
